<svg width="57" height="57" viewBox="0 0 57 57" fill="none" xmlns="http://www.w3.org/2000/svg">
<path d="M16.625 42.75C19.2375 42.75 21.375 44.8875 21.375 47.5C21.375 50.1125 19.2375 52.25 16.625 52.25C14.0125 52.25 11.875 50.1125 11.875 47.5C11.875 44.8875 14.0125 42.75 16.625 42.75ZM40.375 42.75C42.9875 42.75 45.125 44.8875 45.125 47.5C45.125 50.1125 42.9875 52.25 40.375 52.25C37.7625 52.25 35.625 50.1125 35.625 47.5C35.625 44.8875 37.7625 42.75 40.375 42.75ZM17.1 35.15C17.1 35.3875 17.3375 35.625 17.575 35.625H45.125V40.375H16.625C14.0125 40.375 11.875 38.2375 11.875 35.625C11.875 34.675 12.1125 33.9625 12.35 33.25L15.4375 27.55L7.125 9.5H2.375V4.75H10.2125L20.425 26.125H37.05L46.3125 9.5L50.35 11.875L41.0875 28.5C40.375 29.925 38.7125 30.875 37.05 30.875H19.2375L17.1 34.675V35.15ZM22.325 2.375C24.225 2.375 25.65 3.8 25.65 5.7C25.65 7.6 24.225 9.025 22.325 9.025C20.425 9.025 19 7.6 19 5.7C19 3.8 20.6625 2.375 22.325 2.375ZM34.675 21.375C32.775 21.375 31.35 19.95 31.35 18.05C31.35 16.15 32.775 14.725 34.675 14.725C36.575 14.725 38 16.15 38 18.05C38 19.95 36.3375 21.375 34.675 21.375ZM21.85 21.375L19 18.525L35.15 2.375L38 5.225L21.85 21.375Z" fill="#A4A4A4"/>
</svg>
